# xmcd CD database file
#
# Track frame offsets:
#	150
#	15497
#	38442
#	54265
#	67397
#	77367
#	94182
#	111285
#	130322
#	148012
#	163847
#	182815
#	202230
#	217427
#	232997
#	250675
#	268012
#	289920
#	308165
#	323525
#
# Disc length: 4600 seconds
#
# Revision: 6
# Processed by: cddbd v1.5.2PL0 Copyright (c) Steve Scherf et al.
# Submitted via: CDex 1.51
#
DISCID=2811f614
DTITLE=Prince - The Hits - The B-Sides (Disc-3: The B-Sides)
DYEAR=1993
DGENRE=Rock
TTITLE0=Hello
TTITLE1=200 Balloons
TTITLE2=Escape
TTITLE3=Gotta Stop (Messin' About)
TTITLE4=Horny Toad
TTITLE5=Feel U Up
TTITLE6=Girl
TTITLE7=I Love U In Me
TTITLE8=Erotic City
TTITLE9=Shockadelica
TTITLE10=Irresistible Bitch
TTITLE11=Scarlet Pussy
TTITLE12=La, La, La, He, He, Hee
TTITLE13=She's Always In My Hair
TTITLE14=17 Days
TTITLE15=How Come U Don't Call Me Anymore
TTITLE16=Another Lonely Christmas
TTITLE17=God
TTITLE18=4 The Tears In Your Eyes (Live)
TTITLE19=Power Fantastic (Live)
EXTD=YEAR: 1993
EXTT0=
EXTT1=
EXTT2=
EXTT3=
EXTT4=
EXTT5=
EXTT6=
EXTT7=
EXTT8=
EXTT9=
EXTT10=
EXTT11=
EXTT12=
EXTT13=
EXTT14=
EXTT15=
EXTT16=
EXTT17=
EXTT18=
EXTT19=
PLAYORDER=
